<svg width="20" height="20" viewBox="0 0 20 20" fill="none" xmlns="http://www.w3.org/2000/svg"><path d="M9.9 19c-.3 0-.6-.1-.8-.4-5.4-6.1-6.7-7.5-7-7.9C1.4 9.8 1 8.6 1 7.4 1 4.4 3.4 2 6.5 2 7.8 2 9 2.5 10 3.3c1-.8 2.3-1.3 3.5-1.3 3 0 5.5 2.4 5.5 5.4 0 1.3-.5 2.5-1.3 3.4l-7 7.9c-.2.2-.4.3-.8.3zm-6-9.5c.3.4 3.5 4 6.1 6.9l6.2-7c.5-.5.7-1.2.7-2 0-1.8-1.5-3.3-3.3-3.3-1 0-2 .5-2.7 1.3-.3.3-.6.4-.9.4-.3 0-.6-.2-.8-.4-.7-.8-1.7-1.3-2.7-1.3-1.8 0-3.3 1.5-3.3 3.3-.1.9.3 1.6.7 2.1-.1 0-.1 0 0 0z" fill="#000"/></svg>