<svg width="76" height="72" viewBox="0 0 76 72" fill="none" xmlns="http://www.w3.org/2000/svg"><path d="M30.619 65h16.064V41.2H30.619V65zm2.911-20.9h10.14v18H33.53v-18z" fill="#83B3D3"/><path d="M73.892 39.3L76 37.2l-9.94-9.9V0H52.104v13.6L38.45 0 1 37.2l2.108 2.1 7.832-7.8v37.6H6.924V72H71.08v-2.9h-5.12V31.5l7.932 7.8zM63.048 69.1H13.851V28.5L38.45 4.1l24.598 24.4v40.6zm0-44.7l-7.931-7.9V2.9h7.931v21.5z" fill="#83B3D3"/><path d="M30.82 27.1c0 4.3 3.513 7.7 7.73 7.7 4.318 0 7.832-3.5 7.832-7.7 0-4.3-3.514-7.7-7.832-7.7-4.217 0-7.73 3.4-7.73 7.7zm7.83-5c2.711 0 5.02 2.2 5.02 4.9s-2.208 4.9-5.02 4.9c-2.71 0-5.02-2.2-5.02-4.9s2.21-4.9 5.02-4.9zM20.98 41.2h-3.012v3.9h3.012v-3.9zM26.904 41.2h-3.012v3.9h3.012v-3.9zM20.98 47.2h-3.012v3.9h3.012v-3.9zM26.904 47.2h-3.012v3.9h3.012v-3.9zM53.008 41.2h-3.012v3.9h3.012v-3.9zM58.932 41.2H55.92v3.9h3.012v-3.9zM53.008 47.2h-3.012v3.9h3.012v-3.9zM58.932 47.2H55.92v3.9h3.012v-3.9z" fill="#83B3D3"/></svg>