<svg width="75" height="72" viewBox="0 0 75 72" fill="none" xmlns="http://www.w3.org/2000/svg"><path d="M71.076 47.7H5.11C2.805 47.7 1 49.6 1 52v3.5c0 2.4 1.905 4.3 4.11 4.3h.903v1.1c0 5.5 4.31 10.1 9.624 10.1h44.712c5.313 0 9.624-4.5 9.624-10.1v-1.1h.902c2.306 0 4.11-1.9 4.11-4.3V52c.201-2.3-1.704-4.3-3.91-4.3zm-3.91 13.2c0 3.9-3.008 7-6.717 7H15.637c-3.71 0-6.717-3.2-6.717-7v-1.1h58.246v1.1zm5.113-5.4c0 .7-.602 1.3-1.203 1.3H5.01c-.702 0-1.203-.6-1.203-1.3V52c0-.7.602-1.3 1.203-1.3h65.965c.702 0 1.203.6 1.203 1.3.1 0 .1 3.5.1 3.5zM16.64 39.4l5.413 4.1 5.313-4.1 5.313 4.1 5.314-4.1 5.413 4.1 5.314-4.1 5.313 4.1 5.413-4.1 5.314 4.1 6.215-4.7-1.704-2.5-4.511 3.4-5.314-4.1-5.413 4.1-5.313-4.1-5.314 4.1-5.413-4.1-5.314 4.1-5.313-4.1-5.313 4.1-5.414-4.1-5.313 4.1-4.511-3.4-1.705 2.5 6.216 4.7 5.313-4.1zM9.02 32.5h60.953c0-.6.1-1.2.1-1.9v-1.2C69.371 13.7 55.336 1 38.093 1 20.749 1 6.714 13.7 6.013 29.5v1.2c0 .6-.005 1.2.095 1.8H9.02zM38.093 4c15.64 0 28.471 11.3 29.073 25.5H9.02C9.622 15.4 22.454 4 38.093 4z" fill="#83B3D3"/><path d="M38.093 18.3c1.052 0 1.905-.895 1.905-2s-.853-2-1.905-2-1.905.895-1.905 2 .853 2 1.905 2zM30.273 13.2c1.052 0 1.905-.895 1.905-2s-.853-2-1.905-2-1.904.895-1.904 2 .852 2 1.904 2zM45.812 13.2c1.052 0 1.905-.895 1.905-2s-.853-2-1.905-2-1.904.895-1.904 2 .852 2 1.904 2z" fill="#83B3D3"/></svg>